<?xml version="1.0" standalone="no"?>
<!DOCTYPE svg PUBLIC "-//W3C//DTD SVG 20010904//EN"
 "http://www.w3.org/TR/2001/REC-SVG-20010904/DTD/svg10.dtd">
<svg version="1.0" xmlns="http://www.w3.org/2000/svg"
 width="24.000000pt" height="24.000000pt" viewBox="0 0 640.000000 640.000000"
 preserveAspectRatio="xMidYMid meet">

<g transform="translate(0.000000,640.000000) scale(0.100000,-0.100000)"
fill="#FFFFFF" stroke="none">
<path d="M2367 5186 c-25 -25 -60 -70 -77 -100 -17 -30 -37 -53 -43 -51 -33
12 -144 11 -190 -1 -29 -8 -55 -14 -59 -14 -4 0 -25 31 -47 68 -52 89 -68 103
-88 77 -26 -34 -62 -118 -74 -171 -9 -42 -9 -60 5 -107 l17 -57 -60 -113 c-33
-61 -73 -152 -91 -202 -17 -49 -39 -103 -50 -120 -24 -39 -111 -122 -176 -168
-94 -67 -154 -149 -169 -230 -4 -20 -5 -37 -2 -37 3 0 24 35 47 78 53 99 85
131 195 199 50 30 101 65 114 77 l25 21 -20 -35 c-11 -19 -49 -57 -84 -85
-121 -93 -184 -164 -204 -229 -33 -104 -8 -218 69 -312 41 -50 55 -82 56 -132
1 -37 2 -37 9 8 5 27 2 92 -7 165 -19 151 -12 230 25 309 37 77 90 132 159
163 67 31 79 24 24 -13 -53 -35 -96 -101 -124 -189 -30 -97 -28 -319 3 -525
34 -220 21 -398 -46 -630 -13 -45 -16 -127 -18 -465 -3 -486 -5 -502 -82 -536
-28 -11 -68 -19 -105 -19 -40 0 -73 -7 -104 -22 -46 -22 -62 -45 -25 -35 25 6
25 6 0 -40 -10 -20 -17 -40 -14 -45 6 -9 39 6 49 22 12 20 25 9 25 -20 0 -34
6 -37 32 -13 17 15 18 15 18 -5 0 -28 26 -29 35 -2 9 28 25 25 25 -5 0 -53 50
-17 65 48 4 15 9 27 10 27 2 0 23 -8 47 -19 39 -16 49 -17 81 -6 41 14 46 7
22 -35 -21 -36 -18 -50 8 -50 41 0 117 100 117 153 0 17 -9 36 -20 45 -20 17
-20 19 -6 112 8 52 26 133 39 180 75 257 102 411 117 667 6 104 17 235 25 293
23 173 25 189 26 353 1 86 5 157 10 157 5 0 16 -11 25 -25 12 -19 19 -63 25
-166 9 -141 16 -167 61 -232 26 -36 88 -67 135 -67 36 0 92 23 173 70 l34 20
13 -52 c17 -64 51 -111 108 -146 l43 -27 -28 -80 c-15 -44 -60 -156 -100 -250
-163 -386 -211 -535 -213 -655 -2 -102 53 -184 153 -229 62 -28 204 -29 284
-1 93 32 172 79 225 135 45 47 50 50 55 31 3 -12 6 -34 6 -49 0 -27 2 -28 31
-22 26 6 31 4 36 -15 5 -18 11 -21 35 -16 16 3 37 0 48 -6 22 -14 56 0 127 54
24 17 45 29 49 26 3 -3 -4 -24 -16 -47 -11 -23 -16 -41 -11 -41 5 0 31 18 56
40 25 22 54 40 63 40 9 0 28 9 40 18 22 17 24 27 29 160 l6 142 36 9 c122 32
166 41 253 50 53 6 108 15 123 21 22 8 24 13 15 30 -17 32 -51 47 -120 53
-123 11 -150 32 -164 129 -5 36 -14 53 -37 71 -29 23 -29 23 -18 77 6 30 11
128 11 218 l-1 162 37 0 c36 0 40 -3 74 -63 46 -80 72 -110 283 -337 185 -199
228 -249 349 -407 85 -112 172 -198 241 -239 67 -39 174 -74 227 -74 93 0 201
48 266 120 42 46 80 135 152 354 40 119 82 231 94 249 14 20 49 46 96 70 118
60 271 191 255 218 -9 14 -72 1 -135 -30 -49 -23 -68 -26 -170 -28 -63 -1
-133 -4 -155 -8 -81 -12 -108 -61 -98 -177 l6 -61 -104 -100 c-134 -130 -199
-177 -199 -147 0 8 -89 173 -325 600 -107 193 -240 411 -285 468 -52 65 -189
186 -272 240 -61 39 -64 51 -29 98 44 59 138 94 321 119 347 47 452 101 497
254 40 139 -33 336 -194 524 -67 78 -162 152 -215 169 -33 10 -41 9 -58 -7
-11 -10 -20 -23 -20 -30 0 -15 37 -49 77 -69 58 -29 163 -137 224 -230 115
-175 131 -323 43 -409 -56 -56 -161 -87 -400 -117 -214 -27 -323 -80 -375
-182 -11 -21 -21 -38 -23 -38 -2 0 -32 9 -67 20 -150 45 -238 47 -398 8 l-85
-20 -60 68 c-33 38 -94 104 -135 146 -41 43 -73 80 -70 82 2 2 48 -23 101 -54
110 -66 213 -110 255 -109 22 0 17 4 -27 19 -97 34 -156 71 -242 150 -97 90
-136 154 -149 245 -13 94 -43 164 -98 229 -37 43 -63 92 -100 180 -27 67 -61
146 -75 176 -18 38 -26 72 -26 111 0 75 -18 165 -41 211 -11 21 -21 38 -22 38
-2 0 -24 -20 -50 -44z"/>
</g>
</svg>
